<svg id="Layer_1" enable-background="new 0 0 92.837 247.186" height="512" viewBox="0 0 92.837 247.186" width="512" xmlns="http://www.w3.org/2000/svg"><g><path d="m13.679 31.767 40.958-24.674c3.228-2.647 7.134-4.491 11.413-5.24-.688-.572-1.474-1.032-2.332-1.351-2.282-.85-4.828-.612-6.915.646l-28.485 17.159-1.057-5.136c-.325-1.579-1.882-2.605-3.462-2.28l-21.459 4.416c-1.579.325-2.605 1.882-2.28 3.461l1.281 6.227c.325 1.578 1.883 2.605 3.462 2.28l7.805-1.606.458 2.224c-1.526 1.683-2.246 3.934-2.026 6.163.736-.895 1.618-1.674 2.639-2.289z"/><path d="m49.332 34.338c1.353 3.522 3.565 6.616 6.381 9.027l-2.17-11.564z"/><path d="m62.535 5.166c.895.141 1.77.386 2.609.762 3.078 1.38 5.287 4.184 5.909 7.499l6.416 34.187c8.93-2.983 15.368-11.406 15.368-21.339 0-12.427-10.072-22.5-22.5-22.5-2.743-.001-5.371.492-7.802 1.391z"/><path d="m73.308 247.147c.331.026.659.039.985.039 6.462 0 11.938-4.977 12.448-11.528l4.5-57.7c.129-1.647-.07-3.304-.587-4.874l-11.45-34.847c3.528-2.18 6.615-5.958 8.726-12.258 5.475-21.685 5.745-34.894 1.642-55.785-.444-2.193-1.085-4.178-1.853-6.002-.061-.291-.134-.582-.229-.872l-5.053-15.408c-1.433.804-2.951 1.472-4.541 1.982l2.378 12.672c.508 2.704-.068 5.444-1.621 7.715-1.554 2.271-3.898 3.801-6.603 4.309-.627.118-1.27.178-1.908.178-4.947 0-9.201-3.533-10.114-8.402l-2.183-11.632c-3.508 4.459-5.189 11.241-4.232 17.609.883 14.234 3.069 34.774-1.468 51.516-.471 2.443-.73 4.493-.792 6.229-.173 1.692-.01 3.444.555 5.164l14.214 43.259-4.305 55.204c-.536 6.881 4.608 12.895 11.491 13.432z"/><path d="m17.783 50.811.822 3.995-7.805 1.606c-1.579.325-2.605 1.883-2.28 3.462l1.281 6.226c.325 1.579 1.883 2.606 3.462 2.281l21.459-4.416c1.579-.325 2.605-1.883 2.28-3.462l-1.281-6.226c-.325-1.579-1.883-2.606-3.462-2.281l-7.805 1.606-.793-3.856c-1.445.737-3.034 1.145-4.658 1.145-.412 0-.818-.032-1.22-.08z"/><path d="m62.29 65.939c.721 3.844 4.08 6.526 7.854 6.526.489 0 .986-.045 1.484-.139 4.343-.815 7.202-4.996 6.387-9.338l-9.222-49.137c-.483-2.576-2.197-4.751-4.589-5.824-2.391-1.072-5.156-.906-7.401.447l-41.937 25.263c-3.785 2.28-5.005 7.196-2.725 10.98 2.279 3.784 7.196 5.005 10.98 2.725l32.07-19.319z"/></g></svg>