<svg id="Layer_1" enable-background="new 0 0 229.166 206.945" height="512" viewBox="0 0 229.166 206.945" width="512" xmlns="http://www.w3.org/2000/svg"><g fill="currentColor"><path d="m5.516 6.484v190.274h-5.516v10h21.031v-10h-5.516v-23.084h162.179c2.989 0 5.421 2.432 5.421 5.421v17.663h-5.515v10h21.032v-10h-5.516v-17.663c0-8.503-6.918-15.421-15.421-15.421h-162.179v-104.2h16.174l4.011-5.125-3.15-2.465-2.81 3.59h-10.289v-16.569h-3.937v-32.421z"/><path d="m67.523 121.917c-1.195-12.37-12.19-21.427-24.559-20.233-12.369 1.195-21.428 12.189-20.233 24.559.654 6.768 4.246 12.541 9.389 16.189h26.02c6.353-4.514 10.186-12.202 9.383-20.515z"/><path d="m228.784 191.388-16.421-65.179c-1.338-5.312-5.979-9.134-11.449-9.428l-100.583-5.414v13.854c0 5.68-4.62 10.3-10.3 10.3s-10.3-4.62-10.3-10.3v-13.744c-4.325 1.777-7.472 5.903-7.74 10.882-.001.024.001.047 0 .071-.022.121-.05.24-.068.362-.946 6.343 1.904 14.357 9.338 19.639h27.823c1.943 0 3.489 1.103 4.515 3.065 1.026-1.961 2.572-3.065 4.516-3.065h39.295c1.113-.885 2.023-1.824 2.769-2.807l30.192 1.625 14.171 56.246c1.428 5.67 6.52 9.45 12.112 9.449 1.011 0 2.039-.124 3.063-.382 6.694-1.685 10.754-8.479 9.067-15.174z"/><path d="m118.115 159.579h55.326c3.891 0 7.074-3.183 7.074-7.074 0-3.891-3.183-7.074-7.074-7.074h-55.326c-3.89.001-3.89 14.148 0 14.148z"/><path d="m82.031 125.221c0 4.418 3.582 8 8 8s8-3.582 8-8v-54.377c-2.579.565-5.254.872-8 .872s-5.421-.306-8-.871z"/><path d="m90.031 68.716c18.975 0 34.358-15.383 34.358-34.358s-15.383-34.358-34.358-34.358-34.358 15.383-34.358 34.358 15.383 34.358 34.358 34.358zm-16.168-34.358c0-8.93 7.239-16.168 16.168-16.168s16.168 7.239 16.168 16.168-7.239 16.168-16.168 16.168-16.168-7.239-16.168-16.168z"/><circle cx="90.031" cy="34.358" r="8.211"/><path d="m109.084 145.432h-80.969c-3.891 0-7.074 3.183-7.074 7.074 0 3.891 3.183 7.074 7.074 7.074h80.968c3.891-.001 3.891-14.148.001-14.148z"/></g></svg>