<svg id="Layer_1" enable-background="new 0 0 183.376 133.488" height="512" viewBox="0 0 183.376 133.488" width="512" xmlns="http://www.w3.org/2000/svg"><g><path d="m72.587 95.187-7.889 5.129c-1.811-2.428-3.512-4.98-5.126-7.59l-12.577 12.636c-1.918 1.928-4.579 3.034-7.3 3.034-.637 0-1.277-.06-1.904-.178-3.355-.631-6.174-2.876-7.538-6.006l-12.885-29.558c-2.269-5.207.121-11.289 5.327-13.558 1.308-.571 2.691-.86 4.11-.86 4.101 0 7.809 2.428 9.447 6.186l6.83 15.669 6.331-6.361c-.712-1.483-1.397-2.93-2.064-4.342l-3.29-3.436c-.861-.899-1.319-2.08-1.292-3.329.027-1.248.537-2.408 1.435-3.268l12.772-12.227c1.804-1.727 4.634-1.732 6.443-.01.052.05.103.101.154.154l3.548 3.707c.86.897 1.318 2.079 1.291 3.327s-.537 2.408-1.435 3.268l-1.696 1.623 30.447-4.644c-2.488-2.534-4.029-6.002-4.029-9.826 0-2.128.49-4.14 1.341-5.949l-66.308 10.115c-.302.046-.595.112-.883.19-1.09.102-2.164.359-3.205.795-8.113 3.403-15.257 14.52-10.533 29.265 6.615 20.236 13.299 31.635 28.661 47.889 12.138 11.029 21.971 5.754 29.244.177 1.188-.911 2.251-1.759 3.164-2.588l36.739-23.885 58.327 12.548c6.749 1.458 13.397-2.842 14.85-9.591 1.452-6.749-2.843-13.397-9.592-14.849l-63.41-13.642c-3.255-.7-6.652-.074-9.442 1.74l-15.351 9.98-7.671 7.344c-1.386 1.328-3.373 1.628-5.041.921z"/><ellipse cx="22.501" cy="22.502" rx="22.5" ry="22.5" transform="matrix(.653 -.757 .757 .653 -9.235 24.834)"/><path d="m93.998 44.727c0 6.483 5.255 11.738 11.738 11.738s11.739-5.255 11.739-11.738-5.256-11.738-11.739-11.738-11.738 5.255-11.738 11.738zm17.265 0c0 3.052-2.474 5.526-5.526 5.526s-5.526-2.474-5.526-5.526 2.474-5.526 5.526-5.526 5.526 2.474 5.526 5.526z"/><path d="m105.737 42.405c-1.283 0-2.323 1.04-2.323 2.323s1.04 2.323 2.323 2.323 2.323-1.04 2.323-2.323-1.041-2.323-2.323-2.323z"/><path d="m72.56 79.676 1.301 1.359-4.646 4.447c-.94.9-.972 2.405-.073 3.345l3.548 3.706c.9.94 2.405.973 3.345.073l12.772-12.227c.94-.9.972-2.405.073-3.345l-3.548-3.706c-.9-.94-2.405-.973-3.345-.073l-4.646 4.447-1.781-1.861c-.494 1.025-1.151 1.975-1.977 2.806z"/><path d="m65.386 55.913c.94-.9.972-2.405.073-3.344l-3.548-3.706c-.9-.94-2.404-.972-3.344-.073l-12.773 12.228c-.94.9-.973 2.404-.073 3.344l3.548 3.706c.899.939 2.404.972 3.344.073l4.646-4.447 1.051 1.098.674-.677c.946-.951 2.046-1.689 3.242-2.202l-1.486-1.552z"/><path d="m60.614 65.737-18.288 18.375-8.182-18.771c-1.767-4.051-6.483-5.902-10.53-4.137-4.051 1.765-5.902 6.48-4.138 10.53l12.884 29.558c1.059 2.428 3.251 4.175 5.854 4.665.493.093.988.138 1.479.138 2.108 0 4.155-.834 5.67-2.356l26.59-26.716c3.117-3.132 3.105-8.197-.026-11.314-3.132-3.115-8.198-3.103-11.313.028z"/></g></svg>