<svg id="Layer_1" enable-background="new 0 0 365.36 235.719" height="512" viewBox="0 0 365.36 235.719" width="512" xmlns="http://www.w3.org/2000/svg"><g><path d="m339.335 111.581c-6.565-10.552-20.439-13.782-30.99-7.217s-13.783 20.439-7.217 30.99c4.005 6.437 10.733 10.144 17.766 10.569l23.638-19.462c.673-5.003-.323-10.26-3.197-14.88z"/><path d="m202.486 196.541c1.031 3.328 4.035 5.499 7.329 5.627.883.035 1.789-.078 2.681-.355l42.739-13.246c.971-.301 1.877-.785 2.668-1.425l31.853-25.807c3.433-2.782 3.961-7.82 1.18-11.252-2.783-3.434-7.82-3.961-11.253-1.18l-30.656 24.838-41.268 12.79c-4.22 1.308-6.581 5.789-5.273 10.01z"/><path d="m187.118 39.708c2.775-3.075 2.532-7.817-.543-10.593s-7.817-2.532-10.593.543l-34.035 37.71c3.391 3.995 6.103 8.583 7.937 13.594z"/><path d="m49.239 137.189v-79.798l19.599 16.799c3.351-5.872 7.985-10.917 13.527-14.747l-69.349-59.443-13.016 15.186 34.239 29.348v92.634c2.403-.53 4.896-.817 7.455-.817 2.592 0 5.115.295 7.545.838zm-5.344-101.817c3.035 0 5.495 2.46 5.495 5.495s-2.46 5.495-5.495 5.495-5.495-2.46-5.495-5.495 2.46-5.495 5.495-5.495z"/><path d="m345.15 227.556h20.21v-15h-16.552l-38.778-33.239-15.675 12.906 23.722 20.334h-48.419-4.72l95.548-78.667c3.012-2.463 3.461-6.942.998-9.954-2.463-3.012-6.942-3.461-9.954-.997l-108.849 89.618h-4.72l65.23-53.705c1.696-7.478-.504-14.385-4.389-18.523-6.02-6.414-18.25-3.881-25.539 3.479-7.624 6.459-17.35 15.274-28.036 22.17l-11.385-53.612c-.544-2.559-1.876-4.883-3.811-6.645l-42.442-38.652c-5.104-4.648-13.009-4.279-17.658.825-4.648 5.104-4.279 13.01.825 17.658l39.467 35.943 12.174 57.327c.033.157.081.307.119.462-.047.058-.088.117-.132.175l-74.251-63.644c-2.959 6.101-7.267 11.426-12.526 15.605l49.187 42.16-3.848 16.548 25.55 22.429h-157.257v-7.795c-2.43.542-4.953.838-7.545.838-2.56 0-5.052-.288-7.455-.817v22.775h179.542 131.369zm-10.739-16.848c3.035 0 5.495 2.46 5.495 5.495s-2.46 5.495-5.495 5.495-5.495-2.46-5.495-5.495c0-3.034 2.46-5.495 5.495-5.495zm-147.919-22.365 2.581-11.096 12.715 10.898c1.298-1.805 3.13-3.142 5.291-3.812l40.845-12.659 30.311-24.56c1.943-1.574 4.387-2.387 6.883-2.29 2.965.116 5.737 1.504 7.604 3.808 3.576 4.413 2.894 10.912-1.518 14.487l-31.853 25.807c-1.023.829-2.179 1.446-3.435 1.835l-37.511 11.626 11.86 10.166h-16.192z"/><path d="m66.965 96.325c0 22.542 18.274 40.816 40.816 40.816s40.816-18.274 40.816-40.816-18.274-40.816-40.816-40.816-40.816 18.274-40.816 40.816zm40.816-19.207c10.608 0 19.208 8.6 19.208 19.208s-8.6 19.208-19.208 19.208-19.208-8.6-19.208-19.208 8.6-19.208 19.208-19.208z"/><ellipse cx="107.781" cy="96.325" rx="9.754" ry="9.754" transform="matrix(.987 -.16 .16 .987 -14.038 18.509)"/><path d="m73.318 170.974c0-17.465-14.159-31.624-31.624-31.624s-31.624 14.159-31.624 31.624 14.158 31.624 31.624 31.624 31.624-14.158 31.624-31.624zm-46.505 0c0-8.219 6.663-14.882 14.882-14.882s14.882 6.663 14.882 14.882-6.663 14.882-14.882 14.882c-8.22 0-14.882-6.663-14.882-14.882z"/><ellipse cx="41.694" cy="170.974" rx="7.557" ry="7.557" transform="matrix(.973 -.23 .23 .973 -38.166 14.153)"/><path d="m332.2 216.203c0 1.221.99 2.211 2.211 2.211s2.211-.99 2.211-2.211-.99-2.211-2.211-2.211-2.211.99-2.211 2.211z"/><path d="m43.895 43.077c1.221 0 2.211-.99 2.211-2.211s-.99-2.211-2.211-2.211-2.211.99-2.211 2.211c.001 1.221.99 2.211 2.211 2.211z"/><path d="m44.171 231.551h20.842v4.168h-20.842z"/><path d="m342.086 235.719h3.064 17.778v-4.168h-17.778-3.064z"/></g></svg>